<?xml version="1.0" encoding="UTF-8"?>
<svg xmlns="http://www.w3.org/2000/svg" xmlns:xlink="http://www.w3.org/1999/xlink" width="595.5pt" zoomAndPan="magnify" viewBox="0 0 595.5 269.25" height="269.25pt" preserveAspectRatio="xMidYMid meet" version="1.2"><defs><clipPath xml:id="clip1" id="clip1"><path d="M 325 1.699219 L 589 1.699219 L 589 265.933594 L 325 265.933594 Z M 325 1.699219 "/></clipPath></defs><g xml:id="surface1" id="surface1"><g clip-rule="nonzero" clip-path="url(#clip1)"><path style=" stroke:none;fill-rule:nonzero;fill:rgb(100%,78.039551%,0%);fill-opacity:1;" d="M 443.265625 193.335938 C 416 184.707031 398.355469 162.171875 397.019531 135.898438 C 395.640625 109.691406 413.976562 80.980469 437.984375 73.230469 C 461.945312 65.546875 493.429688 76.140625 509.082031 96.578125 C 524.734375 117.011719 524.554688 147.292969 510.136719 168.210938 C 495.789062 189.175781 470.53125 201.964844 443.265625 193.335938 Z M 502.410156 29.757812 C 500.375 36.992188 498.460938 47.011719 495.191406 51.210938 C 491.917969 55.40625 487.394531 54.839844 484.433594 54.007812 C 481.472656 53.179688 475.835938 48.429688 475.226562 43.144531 C 474.617188 37.863281 476.625 28.207031 478.65625 20.972656 C 480.6875 13.738281 481.964844 8.796875 485.238281 4.601562 C 488.511719 0.40625 493.730469 1.75 496.691406 2.578125 C 499.652344 3.410156 504.492188 4.984375 505.101562 10.265625 C 505.710938 15.550781 504.441406 22.523438 502.410156 29.757812 Z M 406.226562 37.683594 C 410.625 43.777344 415.464844 49.683594 416.714844 54.851562 C 417.960938 60.023438 413.640625 64.59375 411.144531 66.386719 C 408.648438 68.179688 404.59375 69.710938 400.074219 66.894531 C 395.554688 64.074219 389.246094 56.488281 384.847656 50.390625 C 380.449219 44.296875 377.25 39.796875 376 34.625 C 374.753906 29.453125 379.1875 26.644531 381.683594 24.847656 C 384.179688 23.054688 388.589844 20.703125 393.109375 23.523438 C 397.625 26.339844 401.828125 31.585938 406.226562 37.683594 Z M 350.804688 116.613281 C 358.324219 116.984375 369.144531 116.089844 373.972656 118.339844 C 378.800781 120.589844 376.851562 126.65625 376.699219 129.722656 C 376.550781 132.789062 375.21875 136.910156 370.195312 138.679688 C 365.167969 140.449219 355.292969 140.640625 347.777344 140.273438 C 340.257812 139.90625 334.738281 139.597656 329.910156 137.347656 C 325.082031 135.097656 325.648438 129.882812 325.796875 126.816406 C 325.949219 123.75 326.855469 118.84375 331.878906 117.074219 C 336.90625 115.304688 343.289062 116.246094 350.804688 116.613281 Z M 378.226562 207.59375 C 383.199219 201.957031 389.28125 193.757812 394.050781 191.394531 C 398.824219 189.027344 403.269531 194.617188 405.578125 196.644531 C 407.882812 198.675781 410.28125 202.28125 408.535156 207.304688 C 406.785156 212.328125 400.78125 220.15625 395.804688 225.796875 C 390.832031 231.433594 387.964844 235.191406 383.191406 237.554688 C 378.417969 239.921875 373.871094 236.585938 371.5625 234.558594 C 369.257812 232.527344 367.585938 228.519531 369.335938 223.496094 C 371.082031 218.46875 373.25 213.230469 378.226562 207.59375 Z M 466.613281 243.804688 C 465.300781 236.40625 462.671875 226.550781 463.792969 221.351562 C 464.917969 216.152344 472.0625 216.167969 475.09375 215.632812 C 478.121094 215.097656 482.441406 215.472656 485.285156 219.96875 C 488.132812 224.46875 490.519531 234.035156 491.832031 241.433594 C 493.144531 248.828125 495.988281 253.628906 494.863281 258.828125 C 493.742188 264.027344 486.609375 265.28125 483.582031 265.816406 C 480.550781 266.351562 476.371094 265.15625 473.527344 260.65625 C 470.679688 256.160156 467.929688 251.203125 466.613281 243.804688 Z M 550.769531 197.332031 C 544.15625 193.746094 534.792969 189.652344 531.421875 185.535156 C 528.050781 181.417969 531.011719 177.96875 532.480469 175.273438 C 533.949219 172.574219 538.105469 166.609375 543.402344 167.191406 C 548.699219 167.773438 558.535156 172.179688 565.148438 175.765625 C 571.757812 179.351562 575.855469 182.179688 579.226562 186.296875 C 582.597656 190.417969 580.054688 195.117188 578.585938 197.816406 C 577.117188 200.511719 572.960938 204.027344 567.664062 203.441406 C 562.371094 202.859375 557.382812 200.917969 550.769531 197.332031 Z M 566.683594 102.683594 C 559.75 105.609375 552.808594 109.179688 547.480469 109.242188 C 542.152344 109.304688 537.1875 101.738281 535.992188 98.910156 C 534.796875 96.082031 534.722656 93.410156 538.480469 89.640625 C 542.242188 85.871094 551.820312 80.941406 558.753906 78.015625 C 565.6875 75.09375 570.457031 73.65625 575.785156 73.59375 C 581.113281 73.53125 583.578125 76.925781 584.773438 79.753906 C 585.972656 82.582031 590.273438 87.285156 586.515625 91.054688 C 582.757812 94.824219 573.613281 99.761719 566.683594 102.683594 Z M 566.683594 102.683594 "/></g><path style=" stroke:none;fill-rule:nonzero;fill:rgb(100%,100%,100%);fill-opacity:1;" d="M 446.613281 177.324219 C 427.175781 171.339844 413.960938 149.433594 412.835938 130.492188 C 411.707031 111.546875 422.648438 95.480469 441.792969 90.03125 C 460.976562 84.527344 485.167969 91.625 497.535156 106.628906 C 509.941406 121.585938 510.523438 144.453125 499.589844 159.914062 C 488.605469 175.332031 466.085938 183.257812 446.613281 177.324219 Z M 446.613281 177.324219 "/><path style=" stroke:none;fill-rule:nonzero;fill:rgb(96.859741%,94.509888%,39.99939%);fill-opacity:1;" d="M 448.171875 172.269531 C 430.992188 166.980469 419.308594 147.613281 418.3125 130.867188 C 417.316406 114.121094 426.988281 99.917969 443.910156 95.101562 C 460.867188 90.238281 482.253906 96.507812 493.1875 109.773438 C 504.152344 122.996094 504.667969 143.210938 495.003906 156.875 C 485.292969 170.507812 465.382812 177.511719 448.171875 172.269531 Z M 448.171875 172.269531 "/><path style=" stroke:none;fill-rule:nonzero;fill:rgb(100%,78.039551%,0%);fill-opacity:1;" d="M 432.5625 141.453125 C 428.921875 131.09375 435.878906 122.046875 445.292969 115.515625 C 454.703125 108.941406 466.574219 104.878906 475.800781 111.179688 C 485.027344 117.441406 488.601562 131.109375 484.804688 142.015625 C 481.046875 152.921875 469.835938 158.648438 458.632812 158.367188 C 447.433594 158.089844 436.203125 151.808594 432.5625 141.453125 Z M 432.5625 141.453125 "/><path style=" stroke:none;fill-rule:nonzero;fill:rgb(100%,100%,100%);fill-opacity:1;" d="M 456.503906 146.273438 C 451.6875 144.894531 447.300781 139.519531 446.914062 134.179688 C 446.550781 128.835938 450.453125 125.515625 455.460938 124.070312 C 460.484375 122.636719 463.742188 123.902344 466.726562 127.921875 C 469.707031 131.9375 472.15625 136.753906 469.351562 140.882812 C 466.527344 145.019531 461.320312 147.652344 456.503906 146.273438 Z M 456.503906 146.273438 "/><path style=" stroke:none;fill-rule:nonzero;fill:rgb(100%,100%,100%);fill-opacity:1;" d="M 53.625 185.558594 C 51.753906 185.558594 50.347656 185.207031 49.414062 184.507812 C 48.59375 183.804688 48.183594 182.636719 48.183594 181.003906 L 48.183594 158.050781 C 46.664062 157 43.796875 156.066406 39.585938 155.246094 C 35.371094 154.429688 31.394531 153.90625 27.648438 153.671875 C 26.363281 156.125 25.425781 159.101562 24.839844 162.605469 L 24.136719 166.109375 C 24.023438 166.929688 23.671875 168.738281 23.085938 171.542969 C 22.5 174.34375 21.855469 176.796875 21.15625 178.898438 C 20.453125 180.886719 19.75 182.460938 19.046875 183.632812 C 14.601562 183.632812 12.027344 182.460938 11.324219 180.125 C 12.613281 178.257812 14.074219 172.769531 15.714844 163.65625 L 21.503906 131.59375 C 24.082031 116.410156 26.421875 103.445312 28.527344 92.699219 C 30.75 81.953125 33.089844 72.960938 35.546875 65.71875 C 38.238281 57.660156 40.8125 53.628906 43.269531 53.628906 C 45.726562 53.628906 47.601562 54.097656 48.886719 55.03125 C 48.886719 59.703125 50 70.972656 52.222656 88.84375 C 54.5625 106.367188 55.730469 118.339844 55.730469 124.761719 C 55.730469 130.953125 56.375 139.828125 57.664062 151.394531 C 58.832031 163.191406 59.417969 172.59375 59.417969 179.601562 C 59.417969 183.574219 57.488281 185.558594 53.625 185.558594 Z M 44.5 147.890625 C 45.433594 147.890625 46.605469 147.714844 48.007812 147.363281 C 47.65625 142.222656 47.074219 135.859375 46.253906 128.265625 C 43.5625 101.867188 42.21875 85.691406 42.21875 79.734375 L 42.21875 78.332031 C 41.046875 79.5 39.410156 84.816406 37.300781 94.277344 C 35.3125 103.621094 33.441406 113.667969 31.6875 124.410156 C 29.929688 135.15625 28.996094 142.28125 28.878906 145.785156 C 33.792969 147.1875 39 147.890625 44.5 147.890625 Z M 44.5 147.890625 "/><path style=" stroke:none;fill-rule:nonzero;fill:rgb(100%,100%,100%);fill-opacity:1;" d="M 118.480469 203.339844 C 111.523438 203.609375 104.867188 199.128906 104.867188 199.128906 C 103.59375 197.0625 103.574219 194.289062 103.078125 191.078125 C 102.492188 186.246094 102.757812 187.480469 101.78125 183.101562 C 94.886719 181.75 89.789062 178.59375 86.488281 173.628906 C 82.929688 168.421875 80.511719 162.242188 79.242188 155.089844 C 78.140625 149.046875 77.410156 141.375 77.050781 132.074219 C 76.886719 127.859375 76.804688 124.074219 76.800781 120.71875 L 76.386719 109.929688 C 76.21875 105.589844 76.328125 98.753906 76.714844 89.425781 C 77.257812 80.835938 78.875 72.824219 81.574219 65.394531 C 82.921875 61.617188 84.738281 58.691406 87.023438 56.617188 C 89.433594 54.535156 92.1875 53.4375 95.296875 53.320312 C 96.304688 53.652344 97.808594 53.96875 99.808594 54.261719 C 101.945312 54.800781 103.269531 55.1875 103.773438 55.414062 C 109.699219 57.421875 114.140625 61.289062 117.097656 67.011719 C 120.050781 72.613281 121.957031 78.5625 122.824219 84.863281 C 123.667969 90.667969 124.210938 96.671875 124.449219 102.871094 L 124.949219 120.734375 C 124.878906 128.5625 124.507812 136.710938 123.839844 145.183594 C 123.390625 152.902344 122.066406 160.589844 119.875 168.25 C 117.78125 175.285156 114.78125 179.746094 110.871094 181.636719 C 112.085938 189.234375 111.832031 185.90625 113.820312 193.832031 C 119.535156 193.613281 122.464844 195.304688 122.601562 198.898438 C 122.648438 200.140625 122.253906 201.210938 121.417969 202.113281 C 120.707031 203.007812 119.730469 203.480469 118.488281 203.527344 L 118.480469 203.34375 Z M 100.988281 176.984375 C 103.113281 176.589844 104.484375 176.148438 106.347656 175.660156 C 107.714844 175.609375 109.15625 172.632812 110.671875 166.738281 C 112.1875 160.84375 113.421875 154.152344 114.378906 146.664062 C 115.332031 139.175781 115.746094 133.757812 115.617188 130.410156 L 114.371094 98.042969 C 113.394531 72.621094 106.753906 60.144531 94.457031 60.617188 C 92.34375 60.699219 90.632812 63.121094 89.324219 67.890625 C 87.230469 74.925781 86.058594 86.523438 85.8125 102.675781 C 85.628906 107.652344 85.59375 111.628906 85.710938 114.601562 L 86.425781 128.363281 C 86.675781 131.582031 87.179688 136.652344 87.945312 143.578125 C 87.992188 144.820312 88.191406 146.796875 88.546875 149.519531 C 89.277344 155.574219 90.828125 161.972656 93.203125 168.714844 C 95.164062 174.351562 97.757812 177.109375 100.988281 176.984375 Z M 100.988281 176.984375 "/><path style=" stroke:none;fill-rule:nonzero;fill:rgb(100%,100%,100%);fill-opacity:1;" d="M 178.113281 190.003906 C 174.914062 190.195312 172.007812 189.632812 169.386719 188.320312 C 166.777344 187.140625 164.59375 185.265625 162.835938 182.703125 C 159.308594 177.304688 156.867188 171.109375 155.511719 164.117188 C 154.214844 158.054688 153.316406 150.769531 152.808594 142.257812 C 151.554688 127.917969 150.308594 110.375 149.074219 89.628906 L 147.960938 74.277344 C 147.78125 73.488281 147.632812 72.164062 147.523438 70.300781 C 146.957031 65.261719 146.640625 62.210938 146.578125 61.148438 C 147.609375 58.285156 148.925781 56.804688 150.523438 56.710938 C 152.125 56.613281 153.59375 57.730469 154.933594 60.050781 C 156.410156 62.367188 157.230469 64.921875 157.398438 67.714844 L 160.625 121.972656 C 160.941406 127.292969 161.828125 134.316406 163.285156 143.035156 C 164.867188 153.886719 165.75 160.90625 165.941406 164.101562 C 166.527344 173.941406 171.015625 178.613281 179.410156 178.117188 C 189.003906 177.546875 191.671875 141.488281 187.410156 69.9375 L 186.746094 58.765625 L 186.640625 56.96875 C 186.484375 56.578125 186.382812 56.050781 186.34375 55.386719 C 186.25 53.789062 186.515625 52.640625 187.140625 51.933594 C 187.894531 51.089844 189.335938 50.601562 191.46875 50.476562 C 193.199219 50.375 194.5625 50.828125 195.558594 51.835938 C 196.679688 52.703125 197.414062 53.792969 197.761719 55.109375 C 197.941406 55.898438 198.097656 57.425781 198.234375 59.683594 C 198.359375 61.8125 198.363281 65.214844 198.238281 69.894531 C 197.9375 73.78125 197.867188 77.125 198.035156 79.917969 C 198.214844 82.976562 198.246094 85.710938 198.121094 88.121094 L 198.21875 96.523438 L 198.316406 98.117188 C 198.480469 98.640625 198.582031 99.234375 198.621094 99.902344 C 202.136719 158.949219 195.300781 188.984375 178.113281 190.003906 Z M 178.113281 190.003906 "/><path style=" stroke:none;fill-rule:nonzero;fill:rgb(100%,100%,100%);fill-opacity:1;" d="M 228.179688 185.972656 C 218 185.972656 212.910156 184.222656 212.910156 180.71875 C 212.910156 177.914062 214.722656 176.511719 218.351562 176.511719 L 220.28125 176.511719 L 222.035156 176.6875 C 222.972656 176.6875 223.617188 176.394531 223.964844 175.8125 C 224.316406 175.226562 224.492188 174.175781 224.492188 172.660156 C 224.492188 170.671875 224.375 167.578125 224.140625 163.371094 C 223.792969 160.570312 223.382812 155.546875 222.914062 148.304688 C 221.859375 130.433594 221.332031 116.945312 221.332031 107.832031 C 221.332031 104.5625 221.390625 101.585938 221.507812 98.898438 L 221.683594 89.960938 C 221.683594 86.109375 221.507812 82.894531 221.160156 80.324219 C 219.285156 80.792969 217.941406 81.027344 217.121094 81.027344 C 214.3125 81.027344 212.910156 79.625 212.910156 76.820312 C 212.910156 75.421875 213.785156 74.195312 215.542969 73.140625 C 217.296875 72.089844 219.519531 71.332031 222.210938 70.863281 C 226.890625 69.929688 231.046875 69.464844 234.671875 69.464844 C 236.078125 69.464844 237.246094 69.988281 238.183594 71.039062 C 239.238281 71.976562 239.761719 73.085938 239.761719 74.367188 C 239.761719 75.652344 239.355469 76.761719 238.535156 77.699219 C 237.832031 78.632812 236.898438 79.097656 235.726562 79.097656 C 235.023438 79.097656 234.4375 79.042969 233.972656 78.925781 L 232.566406 78.925781 C 231.398438 78.925781 230.519531 79.214844 229.933594 79.800781 C 229.464844 80.265625 229.230469 81.203125 229.230469 82.605469 C 229.230469 93.933594 229.933594 110.988281 231.339844 133.761719 C 231.574219 137.96875 232.039062 144.160156 232.742188 152.335938 C 233.328125 157.707031 233.621094 163.199219 233.621094 168.804688 L 233.621094 175.460938 C 234.320312 175.34375 235.492188 175.285156 237.128906 175.285156 C 242.046875 175.285156 244.503906 177.332031 244.503906 181.417969 L 244.503906 182.46875 L 240.113281 185.449219 C 239.996094 185.449219 239.585938 185.507812 238.886719 185.625 C 238.300781 185.625 237.128906 185.625 235.375 185.625 C 231.632812 185.855469 229.230469 185.972656 228.179688 185.972656 Z M 228.179688 185.972656 "/><path style=" stroke:none;fill-rule:nonzero;fill:rgb(100%,100%,100%);fill-opacity:1;" d="M 269.007812 190.003906 C 264.796875 190.003906 261.167969 189.246094 258.125 187.726562 C 256.253906 186.675781 255.320312 185.449219 255.320312 184.046875 C 255.320312 182.644531 255.667969 181.535156 256.371094 180.71875 C 257.074219 179.785156 258.070312 179.316406 259.355469 179.316406 C 260.527344 179.316406 262.222656 179.785156 264.445312 180.71875 C 266.902344 181.652344 268.425781 182.121094 269.007812 182.121094 C 271.230469 182.121094 273.222656 181.183594 274.976562 179.316406 C 276.847656 177.332031 278.3125 174.761719 279.363281 171.609375 C 281.472656 165.765625 282.523438 160.511719 282.523438 155.839844 C 282.523438 150.816406 281.703125 145.558594 280.066406 140.070312 C 278.546875 134.464844 276.4375 129.03125 273.75 123.777344 L 270.941406 118.171875 C 268.015625 112.328125 265.734375 107.714844 264.09375 104.328125 C 262.574219 100.941406 261.226562 97.261719 260.058594 93.292969 C 258.300781 87.683594 257.425781 82.253906 257.425781 76.996094 C 257.425781 72.792969 258.125 68.820312 259.53125 65.082031 C 261.050781 61.34375 263.277344 58.191406 266.199219 55.621094 C 269.125 52.820312 272.753906 51.417969 277.082031 51.417969 C 279.1875 51.417969 281.238281 52.058594 283.226562 53.34375 C 285.214844 54.511719 286.621094 56.03125 287.4375 57.898438 L 284.453125 61.578125 C 281.414062 61.578125 279.128906 60.996094 277.609375 59.828125 C 275.503906 60.0625 273.632812 61.113281 271.992188 62.980469 C 270.472656 64.734375 269.300781 66.777344 268.484375 69.113281 C 267.78125 71.332031 267.429688 73.550781 267.429688 75.769531 C 267.429688 80.210938 268.015625 84.765625 269.183594 89.4375 C 270.472656 93.992188 272.109375 98.3125 274.097656 102.402344 L 286.386719 126.929688 C 288.375 131.136719 289.953125 135.867188 291.125 141.121094 C 292.292969 146.378906 292.878906 151.632812 292.878906 156.890625 C 292.878906 164.597656 291.007812 171.839844 287.261719 178.617188 C 285.273438 182.121094 282.699219 184.863281 279.539062 186.851562 C 276.382812 188.953125 272.871094 190.003906 269.007812 190.003906 Z M 269.007812 190.003906 "/><path style=" stroke:none;fill-rule:nonzero;fill:rgb(100%,100%,100%);fill-opacity:1;" d="M 321.773438 185.972656 C 311.59375 185.972656 306.503906 184.222656 306.503906 180.71875 C 306.503906 177.914062 308.316406 176.511719 311.945312 176.511719 L 313.875 176.511719 L 315.632812 176.6875 C 316.566406 176.6875 317.210938 176.394531 317.5625 175.8125 C 317.914062 175.226562 318.089844 174.175781 318.089844 172.660156 C 318.089844 170.671875 317.972656 167.578125 317.738281 163.371094 C 317.386719 160.570312 316.976562 155.546875 316.507812 148.304688 C 315.457031 130.433594 314.929688 116.945312 314.929688 107.832031 C 314.929688 104.5625 314.988281 101.585938 315.105469 98.898438 L 315.28125 89.960938 C 315.28125 86.109375 315.105469 82.894531 314.753906 80.324219 C 312.882812 80.792969 311.535156 81.027344 310.714844 81.027344 C 307.910156 81.027344 306.503906 79.625 306.503906 76.820312 C 306.503906 75.421875 307.382812 74.195312 309.136719 73.140625 C 310.890625 72.089844 313.117188 71.332031 315.808594 70.863281 C 320.488281 69.929688 324.640625 69.464844 328.269531 69.464844 C 329.671875 69.464844 330.84375 69.988281 331.777344 71.039062 C 332.832031 71.976562 333.359375 73.085938 333.359375 74.367188 C 333.359375 75.652344 332.949219 76.761719 332.128906 77.699219 C 331.429688 78.632812 330.492188 79.097656 329.320312 79.097656 C 328.621094 79.097656 328.035156 79.042969 327.566406 78.925781 L 326.164062 78.925781 C 324.992188 78.925781 324.113281 79.214844 323.53125 79.800781 C 323.0625 80.265625 322.828125 81.203125 322.828125 82.605469 C 322.828125 93.933594 323.53125 110.988281 324.933594 133.761719 C 325.167969 137.96875 325.636719 144.160156 326.339844 152.335938 C 326.921875 157.707031 327.214844 163.199219 327.214844 168.804688 L 327.214844 175.460938 C 327.917969 175.34375 329.085938 175.285156 330.726562 175.285156 C 335.640625 175.285156 338.097656 177.332031 338.097656 181.417969 L 338.097656 182.46875 L 333.710938 185.449219 C 333.59375 185.449219 333.183594 185.507812 332.480469 185.625 C 331.894531 185.625 330.726562 185.625 328.96875 185.625 C 325.226562 185.855469 322.828125 185.972656 321.773438 185.972656 Z M 321.773438 185.972656 "/><path style=" stroke:none;fill-rule:nonzero;fill:rgb(100%,100%,100%);fill-opacity:1;" d="M 365.742188 187.375 C 363.988281 187.375 362.582031 186.558594 361.53125 184.921875 C 360.59375 183.171875 360.125 181.066406 360.125 178.617188 C 360.125 174.761719 360.359375 170.03125 360.828125 164.425781 L 361.179688 159.867188 L 361.53125 150.582031 C 361.53125 146.496094 361.121094 137.382812 360.300781 123.25 C 359.480469 109.117188 359.070312 100.007812 359.070312 95.917969 C 359.070312 95.570312 359.070312 94.925781 359.070312 93.992188 C 359.1875 92.941406 359.246094 91.363281 359.246094 89.261719 C 359.363281 86.925781 359.421875 84.0625 359.421875 80.675781 C 359.421875 72.148438 358.839844 66.71875 357.667969 64.382812 C 356.964844 64.382812 355.445312 64.558594 353.105469 64.90625 L 348.191406 65.257812 C 346.667969 65.257812 345.324219 64.851562 344.152344 64.03125 C 342.984375 63.097656 342.398438 61.929688 342.398438 60.527344 C 342.398438 59.125 343.800781 57.898438 346.609375 56.847656 C 350.707031 55.445312 357.667969 54.453125 367.496094 53.871094 C 371.476562 53.636719 373.875 53.519531 374.691406 53.519531 C 376.097656 53.519531 377.382812 53.988281 378.554688 54.921875 C 379.726562 55.855469 380.308594 57.023438 380.308594 58.425781 C 380.308594 59.828125 379.785156 60.996094 378.730469 61.929688 C 377.792969 62.746094 376.566406 63.15625 375.042969 63.15625 L 371.886719 62.980469 C 370.949219 62.863281 369.894531 62.804688 368.726562 62.804688 L 366.96875 62.804688 C 367.789062 70.75 368.199219 77.933594 368.199219 84.355469 L 368.023438 95.570312 C 367.90625 98.957031 367.847656 102.753906 367.847656 106.957031 C 367.847656 112.5625 368.082031 119.28125 368.550781 127.105469 C 369.136719 136.800781 369.425781 143.515625 369.425781 147.253906 C 369.425781 151.691406 369.660156 156.949219 370.128906 163.023438 C 370.597656 169.214844 370.832031 174.46875 370.832031 178.789062 C 370.832031 184.515625 369.136719 187.375 365.742188 187.375 Z M 365.742188 187.375 "/><path style=" stroke:none;fill-rule:nonzero;fill:rgb(100%,100%,100%);fill-opacity:1;" d="M 19.882812 247.425781 C 16.398438 247.425781 13.484375 246.011719 11.140625 243.1875 C 8.796875 240.359375 7.625 236.460938 7.625 231.488281 C 7.625 226.515625 8.878906 222.585938 11.386719 219.695312 C 13.894531 216.800781 16.855469 215.355469 20.273438 215.355469 C 22.03125 215.355469 23.59375 215.730469 24.960938 216.476562 C 26.328125 217.191406 27.011719 218.214844 27.011719 219.546875 C 27.011719 220.164062 26.847656 220.667969 26.523438 221.058594 C 26.199219 221.449219 25.691406 221.644531 25.007812 221.644531 C 24.324219 221.644531 23.675781 221.367188 23.054688 220.816406 C 22.46875 220.261719 22.175781 219.757812 22.175781 219.304688 C 22.175781 218.816406 22.257812 218.410156 22.421875 218.085938 C 21.835938 217.824219 21.136719 217.695312 20.320312 217.695312 C 17.621094 217.695312 15.292969 218.996094 13.339844 221.59375 C 11.417969 224.195312 10.457031 227.394531 10.457031 231.195312 C 10.457031 233.472656 10.816406 235.648438 11.53125 237.726562 C 12.28125 239.808594 13.386719 241.546875 14.851562 242.941406 C 16.351562 244.308594 18.15625 244.992188 20.273438 244.992188 C 22.390625 244.992188 24.015625 244.144531 25.15625 242.457031 C 26.296875 240.734375 26.863281 238.816406 26.863281 236.703125 L 26.863281 233.828125 L 21.054688 233.828125 C 20.304688 233.828125 19.929688 233.40625 19.929688 232.5625 C 19.929688 231.714844 20.304688 231.292969 21.054688 231.292969 L 32.1875 231.292969 C 32.871094 231.292969 33.210938 231.714844 33.210938 232.5625 C 33.210938 233.40625 32.871094 233.828125 32.1875 233.828125 L 29.648438 233.828125 L 29.648438 236.460938 C 29.648438 238.929688 30.167969 240.78125 31.210938 242.015625 C 31.863281 242.667969 32.1875 243.203125 32.1875 243.625 C 32.1875 244.046875 32.023438 244.40625 31.699219 244.699219 C 31.40625 244.957031 31.082031 245.085938 30.722656 245.085938 C 29.84375 245.085938 28.980469 244.210938 28.132812 242.457031 C 27.582031 243.820312 26.589844 244.988281 25.15625 245.964844 C 23.722656 246.941406 21.964844 247.425781 19.882812 247.425781 Z M 19.882812 247.425781 "/><path style=" stroke:none;fill-rule:nonzero;fill:rgb(100%,100%,100%);fill-opacity:1;" d="M 49.609375 230.738281 C 49.480469 229.4375 48.894531 228.1875 47.851562 226.984375 C 46.8125 225.785156 45.507812 225.183594 43.945312 225.183594 C 42.417969 225.183594 41.148438 225.75 40.136719 226.886719 C 39.128906 228.027344 38.429688 229.308594 38.039062 230.738281 Z M 44.484375 247.410156 C 41.519531 247.410156 39.144531 246.253906 37.355469 243.949219 C 35.5625 241.640625 34.667969 238.699219 34.667969 235.125 C 34.667969 231.550781 35.515625 228.644531 37.207031 226.402344 C 38.933594 224.160156 41.195312 223.039062 43.996094 223.039062 C 45.425781 223.039062 46.714844 223.363281 47.851562 224.011719 C 48.992188 224.628906 49.871094 225.410156 50.488281 226.351562 C 51.792969 228.269531 52.441406 230.089844 52.441406 231.8125 C 52.441406 232.722656 52.019531 233.175781 51.171875 233.175781 L 37.5 233.175781 C 37.4375 233.597656 37.402344 234.199219 37.402344 234.980469 C 37.402344 237.96875 38.070312 240.421875 39.40625 242.339844 C 40.773438 244.257812 42.464844 245.214844 44.484375 245.214844 C 45.363281 245.214844 46.160156 244.988281 46.875 244.53125 C 47.59375 244.046875 48.097656 243.589844 48.390625 243.167969 C 48.683594 242.714844 49.007812 242.113281 49.367188 241.363281 C 49.757812 240.617188 50.277344 240.242188 50.929688 240.242188 C 51.90625 240.242188 52.394531 240.683594 52.394531 241.558594 C 52.394531 242.695312 51.660156 243.964844 50.195312 245.359375 C 48.765625 246.726562 46.859375 247.410156 44.484375 247.410156 Z M 44.484375 247.410156 "/><path style=" stroke:none;fill-rule:nonzero;fill:rgb(100%,100%,100%);fill-opacity:1;" d="M 83.046875 244.40625 L 84.171875 244.40625 C 84.527344 244.40625 84.804688 244.535156 85 244.792969 C 85.195312 245.054688 85.292969 245.347656 85.292969 245.671875 C 85.292969 245.996094 85.195312 246.289062 85 246.550781 C 84.804688 246.808594 84.527344 246.941406 84.171875 246.941406 L 79.484375 246.941406 C 79.125 246.941406 78.847656 246.808594 78.652344 246.550781 C 78.457031 246.289062 78.359375 245.996094 78.359375 245.671875 C 78.359375 245.347656 78.457031 245.054688 78.652344 244.792969 C 78.847656 244.535156 79.125 244.40625 79.484375 244.40625 L 80.3125 244.40625 L 80.3125 231.539062 C 80.3125 229.523438 80.101562 228.027344 79.679688 227.054688 C 79.253906 226.046875 78.390625 225.542969 77.089844 225.542969 C 75.820312 225.542969 74.714844 226.078125 73.769531 227.152344 C 72.011719 229.101562 71.132812 231.503906 71.132812 234.363281 L 71.132812 244.40625 L 72.109375 244.40625 C 72.5 244.40625 72.792969 244.535156 72.988281 244.796875 C 73.214844 245.054688 73.328125 245.363281 73.328125 245.722656 C 73.328125 246.046875 73.214844 246.339844 72.988281 246.597656 C 72.792969 246.824219 72.5 246.941406 72.109375 246.941406 L 67.46875 246.941406 C 66.625 246.941406 66.199219 246.515625 66.199219 245.671875 C 66.199219 244.828125 66.625 244.40625 67.46875 244.40625 L 68.445312 244.40625 L 68.445312 231.195312 C 68.445312 230.125 68.382812 229.214844 68.25 228.464844 C 68.121094 227.71875 67.796875 227.054688 67.273438 226.46875 C 66.753906 225.851562 66.039062 225.542969 65.125 225.542969 C 63.335938 225.542969 61.902344 226.484375 60.828125 228.371094 C 59.789062 230.253906 59.265625 232.21875 59.265625 234.265625 L 59.265625 244.40625 L 60.242188 244.40625 C 60.535156 244.40625 60.796875 244.550781 61.023438 244.84375 C 61.285156 245.105469 61.414062 245.394531 61.414062 245.722656 C 61.414062 246.015625 61.300781 246.289062 61.074219 246.550781 C 60.847656 246.808594 60.570312 246.941406 60.242188 246.941406 L 55.261719 246.941406 C 54.871094 246.941406 54.5625 246.808594 54.335938 246.550781 C 54.109375 246.289062 53.992188 245.996094 53.992188 245.671875 C 53.992188 245.347656 54.109375 245.054688 54.335938 244.796875 C 54.5625 244.535156 54.871094 244.40625 55.261719 244.40625 L 56.53125 244.40625 L 56.53125 226.078125 L 54.824219 226.078125 C 54.5 226.078125 54.222656 225.964844 53.992188 225.738281 C 53.796875 225.507812 53.699219 225.199219 53.699219 224.8125 C 53.699219 224.386719 53.816406 224.078125 54.042969 223.886719 C 54.304688 223.65625 54.5625 223.542969 54.824219 223.542969 L 58.4375 223.542969 C 58.761719 223.542969 58.972656 223.59375 59.070312 223.691406 C 59.203125 223.789062 59.265625 224.015625 59.265625 224.371094 L 59.265625 227.539062 L 59.363281 227.539062 C 60.796875 224.679688 62.832031 223.25 65.46875 223.25 C 68.136719 223.25 69.878906 224.777344 70.691406 227.832031 C 72.515625 224.777344 74.761719 223.25 77.433594 223.25 C 79.484375 223.25 80.929688 224 81.777344 225.492188 C 82.625 226.957031 83.046875 228.742188 83.046875 230.855469 Z M 83.046875 244.40625 "/><path style=" stroke:none;fill-rule:nonzero;fill:rgb(100%,100%,100%);fill-opacity:1;" d="M 102.441406 230.738281 C 102.3125 229.4375 101.726562 228.1875 100.683594 226.984375 C 99.640625 225.785156 98.339844 225.183594 96.777344 225.183594 C 95.246094 225.183594 93.976562 225.75 92.96875 226.886719 C 91.960938 228.027344 91.261719 229.308594 90.871094 230.738281 Z M 97.316406 247.410156 C 94.351562 247.410156 91.976562 246.253906 90.1875 243.949219 C 88.394531 241.640625 87.5 238.699219 87.5 235.125 C 87.5 231.550781 88.347656 228.644531 90.039062 226.402344 C 91.765625 224.160156 94.027344 223.039062 96.828125 223.039062 C 98.257812 223.039062 99.542969 223.363281 100.683594 224.011719 C 101.824219 224.628906 102.703125 225.410156 103.320312 226.351562 C 104.621094 228.269531 105.273438 230.089844 105.273438 231.8125 C 105.273438 232.722656 104.851562 233.175781 104.003906 233.175781 L 90.332031 233.175781 C 90.265625 233.597656 90.234375 234.199219 90.234375 234.980469 C 90.234375 237.96875 90.902344 240.421875 92.238281 242.339844 C 93.605469 244.257812 95.296875 245.214844 97.316406 245.214844 C 98.195312 245.214844 98.992188 244.988281 99.707031 244.53125 C 100.421875 244.046875 100.929688 243.589844 101.222656 243.167969 C 101.515625 242.714844 101.839844 242.113281 102.199219 241.363281 C 102.589844 240.617188 103.109375 240.242188 103.761719 240.242188 C 104.738281 240.242188 105.226562 240.683594 105.226562 241.558594 C 105.226562 242.695312 104.492188 243.964844 103.027344 245.359375 C 101.59375 246.726562 99.691406 247.410156 97.316406 247.410156 Z M 97.316406 247.410156 "/><path style=" stroke:none;fill-rule:nonzero;fill:rgb(100%,100%,100%);fill-opacity:1;" d="M 109.222656 226.007812 L 107.953125 226.007812 C 107.5625 226.007812 107.25 225.894531 107.023438 225.667969 C 106.796875 225.40625 106.683594 225.113281 106.683594 224.789062 C 106.683594 223.945312 107.105469 223.523438 107.953125 223.523438 L 110.394531 223.523438 C 111.402344 223.523438 111.921875 223.960938 111.957031 224.839844 L 111.957031 244.382812 L 113.175781 244.382812 C 113.566406 244.382812 113.859375 244.515625 114.054688 244.773438 C 114.285156 245.035156 114.398438 245.324219 114.398438 245.652344 C 114.398438 246.496094 113.992188 246.917969 113.175781 246.917969 L 108 246.917969 C 107.675781 246.917969 107.382812 246.804688 107.121094 246.578125 C 106.894531 246.316406 106.78125 246.023438 106.78125 245.699219 C 106.78125 245.375 106.894531 245.082031 107.121094 244.824219 C 107.382812 244.53125 107.675781 244.382812 108 244.382812 L 109.222656 244.335938 Z M 109.953125 215.96875 C 110.605469 215.96875 111.140625 216.179688 111.566406 216.601562 C 112.019531 217.023438 112.25 217.542969 112.25 218.160156 C 112.25 218.746094 112.019531 219.25 111.566406 219.671875 C 111.140625 220.09375 110.605469 220.304688 109.953125 220.304688 C 109.335938 220.304688 108.796875 220.09375 108.34375 219.671875 C 107.917969 219.25 107.707031 218.746094 107.707031 218.160156 C 107.707031 217.542969 107.917969 217.023438 108.34375 216.601562 C 108.765625 216.179688 109.300781 215.96875 109.953125 215.96875 Z M 109.953125 215.96875 "/><path style=" stroke:none;fill-rule:nonzero;fill:rgb(100%,100%,100%);fill-opacity:1;" d="M 122.890625 244.40625 L 124.304688 244.40625 C 124.664062 244.40625 124.957031 244.535156 125.183594 244.792969 C 125.414062 245.054688 125.527344 245.347656 125.527344 245.671875 C 125.527344 245.996094 125.414062 246.289062 125.183594 246.550781 C 124.957031 246.808594 124.664062 246.941406 124.304688 246.941406 L 118.59375 246.941406 C 118.234375 246.941406 117.941406 246.824219 117.714844 246.597656 C 117.519531 246.339844 117.421875 246.046875 117.421875 245.722656 C 117.421875 245.363281 117.519531 245.054688 117.714844 244.792969 C 117.941406 244.535156 118.234375 244.40625 118.59375 244.40625 L 120.15625 244.40625 L 120.15625 226.078125 L 118.152344 226.078125 C 117.796875 226.078125 117.519531 225.964844 117.324219 225.738281 C 117.128906 225.476562 117.03125 225.152344 117.03125 224.761719 C 117.03125 224.371094 117.144531 224.078125 117.371094 223.882812 C 117.632812 223.65625 117.894531 223.542969 118.152344 223.542969 L 121.914062 223.542969 C 122.269531 223.542969 122.515625 223.609375 122.644531 223.738281 C 122.777344 223.867188 122.839844 224.113281 122.839844 224.46875 L 122.839844 228.125 C 123.71875 226.664062 124.84375 225.476562 126.210938 224.566406 C 127.578125 223.65625 129.007812 223.203125 130.507812 223.203125 C 132.980469 223.203125 134.738281 223.949219 135.78125 225.445312 C 136.820312 226.90625 137.34375 228.726562 137.34375 230.902344 L 137.34375 244.402344 L 138.710938 244.402344 C 139.066406 244.402344 139.359375 244.535156 139.589844 244.792969 C 139.816406 245.054688 139.929688 245.347656 139.929688 245.671875 C 139.929688 245.996094 139.816406 246.289062 139.589844 246.550781 C 139.359375 246.808594 139.066406 246.9375 138.710938 246.9375 L 133.4375 246.9375 C 132.65625 246.9375 132.265625 246.515625 132.265625 245.671875 C 132.265625 244.828125 132.65625 244.402344 133.4375 244.402344 L 134.609375 244.402344 L 134.609375 230.660156 C 134.609375 227.214844 133.226562 225.492188 130.457031 225.492188 C 128.601562 225.492188 126.878906 226.355469 125.28125 228.074219 C 123.6875 229.796875 122.890625 231.941406 122.890625 234.511719 Z M 122.890625 244.40625 "/><path style=" stroke:none;fill-rule:nonzero;fill:rgb(100%,100%,100%);fill-opacity:1;" d="M 146.058594 227.386719 C 146.058594 228.558594 147.230469 230.003906 149.574219 231.726562 L 151.183594 232.945312 C 152.097656 233.59375 152.8125 234.164062 153.332031 234.652344 C 153.886719 235.105469 154.457031 235.871094 155.042969 236.941406 C 155.660156 237.980469 155.96875 239.085938 155.96875 240.257812 C 155.96875 242.074219 155.367188 243.734375 154.164062 245.226562 C 152.992188 246.691406 151.332031 247.421875 149.183594 247.421875 C 147.035156 247.421875 145.277344 246.917969 143.910156 245.910156 C 142.574219 244.871094 141.90625 243.554688 141.90625 241.960938 C 141.90625 240.988281 142.167969 240.160156 142.6875 239.476562 C 143.210938 238.761719 143.761719 238.402344 144.347656 238.402344 C 144.933594 238.402344 145.375 238.597656 145.667969 238.988281 C 145.992188 239.347656 146.15625 239.816406 146.15625 240.402344 C 146.15625 241.570312 145.765625 242.449219 144.984375 243.035156 C 145.050781 243.683594 145.457031 244.238281 146.203125 244.691406 C 146.984375 245.144531 147.996094 245.375 149.230469 245.375 C 150.5 245.375 151.527344 244.917969 152.308594 244.007812 C 153.089844 243.097656 153.480469 242.140625 153.480469 241.132812 C 153.480469 240.09375 153.234375 239.199219 152.746094 238.453125 C 152.257812 237.707031 151.769531 237.136719 151.28125 236.746094 C 150.792969 236.355469 150.011719 235.773438 148.9375 234.992188 L 148.058594 234.359375 C 146.496094 233.253906 145.324219 232.246094 144.542969 231.335938 C 143.761719 230.394531 143.371094 229.257812 143.371094 227.925781 C 143.371094 226.558594 143.859375 225.421875 144.835938 224.511719 C 145.8125 223.601562 147.019531 223.148438 148.449219 223.148438 C 149.882812 223.148438 151.167969 223.554688 152.308594 224.367188 C 153.449219 225.179688 154.015625 226.1875 154.015625 227.386719 C 154.015625 227.941406 153.871094 228.410156 153.578125 228.800781 C 153.316406 229.160156 152.925781 229.335938 152.40625 229.335938 C 151.886719 229.335938 151.363281 229.046875 150.84375 228.460938 C 150.355469 227.84375 150.109375 227.273438 150.109375 226.753906 C 150.109375 226.203125 150.191406 225.730469 150.355469 225.339844 C 150.0625 225.113281 149.476562 225 148.597656 225 C 147.75 225 147.117188 225.257812 146.691406 225.78125 C 146.269531 226.265625 146.058594 226.804688 146.058594 227.386719 Z M 146.058594 227.386719 "/><path style=" stroke:none;fill-rule:nonzero;fill:rgb(100%,100%,100%);fill-opacity:1;" d="M 165.890625 222.941406 C 168.691406 222.941406 170.855469 223.851562 172.386719 225.671875 C 173.949219 227.492188 174.730469 229.816406 174.730469 232.640625 C 174.730469 237.125 174.894531 240.164062 175.21875 241.757812 C 175.542969 243.316406 176.164062 244.421875 177.074219 245.070312 C 177.628906 245.332031 177.902344 245.6875 177.902344 246.144531 C 177.902344 246.988281 177.511719 247.410156 176.730469 247.410156 C 175.949219 247.410156 175.203125 247.054688 174.484375 246.339844 C 173.800781 245.589844 173.25 244.679688 172.824219 243.609375 C 172.273438 244.679688 171.375 245.589844 170.140625 246.339844 C 168.933594 247.054688 167.488281 247.410156 165.792969 247.410156 C 163.320312 247.410156 161.300781 246.648438 159.738281 245.121094 C 158.210938 243.558594 157.445312 241.59375 157.445312 239.222656 C 157.445312 236.816406 158.257812 234.769531 159.886719 233.082031 C 161.511719 231.390625 163.53125 230.546875 165.941406 230.546875 C 168.382812 230.546875 170.417969 231.34375 172.042969 232.933594 C 172.042969 230.660156 171.554688 228.757812 170.578125 227.230469 C 169.601562 225.671875 168.105469 224.890625 166.085938 224.890625 C 164.070312 224.890625 162.800781 225.445312 162.277344 226.550781 C 162.570312 227.230469 162.71875 227.800781 162.71875 228.253906 C 162.71875 228.710938 162.523438 229.199219 162.132812 229.71875 C 161.742188 230.238281 161.253906 230.496094 160.667969 230.496094 C 160.113281 230.496094 159.675781 230.253906 159.347656 229.765625 C 159.023438 229.277344 158.859375 228.710938 158.859375 228.058594 C 158.859375 226.695312 159.527344 225.507812 160.863281 224.5 C 162.230469 223.460938 163.90625 222.941406 165.890625 222.941406 Z M 160.128906 238.976562 C 160.128906 240.765625 160.730469 242.261719 161.9375 243.460938 C 163.140625 244.664062 164.574219 245.265625 166.234375 245.265625 C 167.925781 245.265625 169.34375 244.699219 170.480469 243.558594 C 171.621094 242.390625 172.191406 240.976562 172.191406 239.320312 L 172.191406 238.882812 C 172.191406 237.125 171.605469 235.679688 170.433594 234.542969 C 169.261719 233.40625 167.8125 232.835938 166.085938 232.835938 C 164.394531 232.835938 162.976562 233.421875 161.839844 234.59375 C 160.699219 235.730469 160.128906 237.191406 160.128906 238.976562 Z M 160.128906 238.976562 "/><path style=" stroke:none;fill-rule:nonzero;fill:rgb(100%,100%,100%);fill-opacity:1;" d="M 208.457031 244.40625 L 209.578125 244.40625 C 209.9375 244.40625 210.214844 244.535156 210.410156 244.792969 C 210.605469 245.054688 210.703125 245.347656 210.703125 245.671875 C 210.703125 245.996094 210.605469 246.289062 210.410156 246.550781 C 210.214844 246.808594 209.9375 246.941406 209.578125 246.941406 L 204.890625 246.941406 C 204.53125 246.941406 204.253906 246.808594 204.058594 246.550781 C 203.863281 246.289062 203.765625 245.996094 203.765625 245.671875 C 203.765625 245.347656 203.863281 245.054688 204.058594 244.792969 C 204.253906 244.535156 204.53125 244.40625 204.890625 244.40625 L 205.71875 244.40625 L 205.71875 231.539062 C 205.71875 229.523438 205.507812 228.027344 205.085938 227.054688 C 204.664062 226.046875 203.800781 225.542969 202.496094 225.542969 C 201.226562 225.542969 200.121094 226.078125 199.175781 227.152344 C 197.417969 229.101562 196.539062 231.503906 196.539062 234.363281 L 196.539062 244.40625 L 197.515625 244.40625 C 197.90625 244.40625 198.199219 244.535156 198.394531 244.796875 C 198.625 245.054688 198.738281 245.363281 198.738281 245.722656 C 198.738281 246.046875 198.625 246.339844 198.394531 246.597656 C 198.199219 246.824219 197.90625 246.941406 197.515625 246.941406 L 192.878906 246.941406 C 192.03125 246.941406 191.609375 246.515625 191.609375 245.671875 C 191.609375 244.828125 192.03125 244.40625 192.878906 244.40625 L 193.855469 244.40625 L 193.855469 231.195312 C 193.855469 230.125 193.789062 229.214844 193.660156 228.464844 C 193.53125 227.71875 193.203125 227.054688 192.683594 226.46875 C 192.164062 225.851562 191.445312 225.542969 190.535156 225.542969 C 188.746094 225.542969 187.3125 226.484375 186.238281 228.371094 C 185.195312 230.253906 184.675781 232.21875 184.675781 234.265625 L 184.675781 244.40625 L 185.652344 244.40625 C 185.945312 244.40625 186.207031 244.550781 186.433594 244.84375 C 186.695312 245.105469 186.824219 245.394531 186.824219 245.722656 C 186.824219 246.015625 186.710938 246.289062 186.480469 246.550781 C 186.253906 246.808594 185.976562 246.941406 185.652344 246.941406 L 180.671875 246.941406 C 180.28125 246.941406 179.972656 246.808594 179.742188 246.550781 C 179.515625 246.289062 179.402344 245.996094 179.402344 245.671875 C 179.402344 245.347656 179.515625 245.054688 179.742188 244.796875 C 179.972656 244.535156 180.28125 244.40625 180.671875 244.40625 L 181.941406 244.40625 L 181.941406 226.078125 L 180.230469 226.078125 C 179.90625 226.078125 179.628906 225.964844 179.402344 225.738281 C 179.207031 225.507812 179.109375 225.199219 179.109375 224.8125 C 179.109375 224.386719 179.222656 224.078125 179.449219 223.886719 C 179.710938 223.65625 179.972656 223.542969 180.230469 223.542969 L 183.84375 223.542969 C 184.171875 223.542969 184.382812 223.59375 184.480469 223.691406 C 184.609375 223.789062 184.675781 224.015625 184.675781 224.371094 L 184.675781 227.539062 L 184.773438 227.539062 C 186.207031 224.679688 188.238281 223.25 190.875 223.25 C 193.546875 223.25 195.289062 224.777344 196.101562 227.832031 C 197.925781 224.777344 200.171875 223.25 202.839844 223.25 C 204.890625 223.25 206.339844 224 207.1875 225.492188 C 208.03125 226.957031 208.457031 228.742188 208.457031 230.855469 Z M 208.457031 244.40625 "/><path style=" stroke:none;fill-rule:nonzero;fill:rgb(100%,100%,100%);fill-opacity:1;" d="M 235.132812 246.921875 C 235.199219 247.996094 235.539062 248.839844 236.160156 249.457031 C 236.808594 250.109375 237.589844 250.433594 238.503906 250.433594 C 239.414062 250.433594 240.066406 250.238281 240.457031 249.847656 C 240.878906 249.457031 241.089844 248.96875 241.089844 248.386719 C 241.089844 247.28125 240.164062 246.726562 238.308594 246.726562 C 237.234375 246.726562 236.175781 246.792969 235.132812 246.921875 Z M 235.867188 239.367188 C 238.078125 239.367188 239.917969 238.703125 241.382812 237.371094 C 242.847656 236.003906 243.582031 234.316406 243.582031 232.300781 C 243.582031 230.285156 242.71875 228.582031 240.992188 227.183594 C 239.300781 225.785156 237.378906 225.085938 235.230469 225.085938 C 233.117188 225.085938 231.277344 225.753906 229.714844 227.085938 C 228.183594 228.386719 227.417969 230.074219 227.417969 232.15625 C 227.417969 234.203125 228.28125 235.90625 230.007812 237.273438 C 231.730469 238.636719 233.683594 239.335938 235.867188 239.367188 Z M 246.121094 232.351562 C 246.121094 234.949219 245.09375 237.125 243.042969 238.882812 C 241.027344 240.601562 238.535156 241.464844 235.574219 241.464844 C 234.402344 241.464844 233.277344 241.300781 232.203125 240.976562 L 230.300781 244.390625 L 238.796875 244.390625 C 240.457031 244.390625 241.644531 244.777344 242.359375 245.558594 C 243.109375 246.304688 243.484375 247.214844 243.484375 248.289062 C 243.484375 249.394531 242.996094 250.351562 242.019531 251.164062 C 241.042969 252.007812 239.773438 252.429688 238.210938 252.429688 C 236.679688 252.429688 235.265625 251.863281 233.960938 250.726562 C 232.660156 249.589844 231.976562 248.320312 231.910156 246.921875 L 228.25 246.921875 C 227.207031 246.921875 226.6875 246.566406 226.6875 245.851562 C 226.6875 245.625 226.769531 245.378906 226.929688 245.121094 L 229.910156 240.101562 C 228.445312 239.386719 227.238281 238.296875 226.296875 236.835938 C 225.351562 235.371094 224.878906 233.78125 224.878906 232.058594 C 224.878906 229.523438 225.90625 227.394531 227.957031 225.671875 C 230.007812 223.917969 232.511719 223.039062 235.476562 223.039062 C 236.84375 223.039062 238.0625 223.203125 239.136719 223.527344 L 240.945312 220.601562 C 241.890625 219.042969 243.042969 218.261719 244.410156 218.261719 C 245.324219 218.261719 246.089844 218.605469 246.707031 219.289062 C 247.359375 219.96875 247.683594 220.636719 247.683594 221.285156 C 247.683594 221.902344 247.535156 222.375 247.242188 222.699219 C 246.949219 222.992188 246.542969 223.136719 246.023438 223.136719 C 245.535156 223.136719 245.015625 222.894531 244.460938 222.40625 C 243.90625 221.917969 243.566406 221.316406 243.433594 220.601562 L 241.089844 224.355469 C 242.621094 225.234375 243.84375 226.371094 244.753906 227.769531 C 245.664062 229.132812 246.121094 230.660156 246.121094 232.351562 Z M 246.121094 232.351562 "/><path style=" stroke:none;fill-rule:nonzero;fill:rgb(100%,100%,100%);fill-opacity:1;" d="M 253.957031 225.722656 L 253.957031 244.390625 L 254.886719 244.390625 C 255.277344 244.390625 255.570312 244.523438 255.765625 244.78125 C 255.992188 245.007812 256.105469 245.300781 256.105469 245.660156 C 256.105469 246.503906 255.699219 246.925781 254.886719 246.925781 L 250.246094 246.925781 C 249.402344 246.925781 248.976562 246.503906 248.976562 245.660156 C 248.976562 244.8125 249.402344 244.390625 250.246094 244.390625 L 251.222656 244.390625 L 251.222656 226.066406 L 250.246094 226.066406 C 249.824219 226.066406 249.5 225.933594 249.269531 225.675781 C 249.042969 225.414062 248.929688 225.121094 248.929688 224.796875 C 248.929688 224.441406 249.042969 224.148438 249.269531 223.921875 C 249.5 223.660156 249.824219 223.53125 250.246094 223.53125 L 259.28125 223.53125 C 260.941406 223.53125 262.195312 223.886719 263.039062 224.601562 C 263.886719 225.285156 264.308594 226.160156 264.308594 227.234375 C 264.308594 227.785156 264.179688 228.289062 263.917969 228.746094 C 263.660156 229.167969 263.234375 229.378906 262.648438 229.378906 C 262.0625 229.378906 261.527344 229.117188 261.039062 228.597656 C 260.582031 228.046875 260.339844 227.476562 260.304688 226.894531 C 260.304688 226.277344 260.339844 225.886719 260.402344 225.722656 Z M 253.957031 225.722656 "/><path style=" stroke:none;fill-rule:nonzero;fill:rgb(100%,100%,100%);fill-opacity:1;" d="M 265.324219 235.183594 C 265.324219 231.675781 266.316406 228.800781 268.300781 226.558594 C 270.320312 224.28125 273.023438 223.144531 276.40625 223.144531 C 279.824219 223.144531 282.527344 224.265625 284.511719 226.507812 C 286.53125 228.75 287.539062 231.625 287.539062 235.136719 C 287.539062 238.613281 286.546875 241.503906 284.5625 243.8125 C 282.578125 246.085938 279.84375 247.222656 276.359375 247.222656 C 272.90625 247.222656 270.207031 246.085938 268.253906 243.8125 C 266.300781 241.539062 265.324219 238.660156 265.324219 235.183594 Z M 270.449219 242.105469 C 272.046875 243.992188 274.03125 244.933594 276.40625 244.933594 C 278.785156 244.933594 280.769531 244.007812 282.363281 242.15625 C 283.992188 240.269531 284.804688 237.945312 284.804688 235.183594 C 284.804688 232.421875 283.992188 230.113281 282.363281 228.261719 C 280.738281 226.378906 278.75 225.4375 276.40625 225.4375 C 274.0625 225.4375 272.078125 226.363281 270.449219 228.214844 C 268.855469 230.066406 268.058594 232.375 268.058594 235.136719 C 268.058594 237.898438 268.855469 240.222656 270.449219 242.105469 Z M 270.449219 242.105469 "/><path style=" stroke:none;fill-rule:nonzero;fill:rgb(100%,100%,100%);fill-opacity:1;" d="M 291.847656 244.40625 L 291.847656 226.90625 C 291.847656 223.527344 292.710938 220.78125 294.4375 218.667969 C 296.195312 216.558594 298.34375 215.5 300.882812 215.5 C 302.28125 215.5 303.550781 215.808594 304.691406 216.425781 C 305.832031 217.042969 306.398438 217.839844 306.398438 218.816406 C 306.398438 219.335938 306.21875 219.742188 305.863281 220.035156 C 305.503906 220.292969 305.046875 220.425781 304.496094 220.425781 C 303.972656 220.425781 303.308594 220.117188 302.492188 219.5 C 301.679688 218.847656 301.257812 218.199219 301.222656 217.546875 C 299.367188 217.613281 297.789062 218.3125 296.488281 219.644531 C 295.21875 220.976562 294.582031 223.054688 294.582031 225.882812 L 294.582031 226.46875 C 295.234375 225.527344 296.113281 224.714844 297.21875 224.03125 C 298.328125 223.347656 299.5 223.007812 300.734375 223.007812 C 301.972656 223.007812 303.128906 223.382812 304.203125 224.128906 C 305.308594 224.875 305.863281 225.949219 305.863281 227.347656 C 305.863281 228.710938 305.503906 229.78125 304.789062 230.5625 C 306.480469 231.246094 307.832031 232.414062 308.839844 234.070312 C 309.851562 235.730469 310.355469 237.597656 310.355469 239.675781 C 310.355469 241.722656 309.835938 243.542969 308.792969 245.136719 C 307.75 246.695312 306.222656 247.476562 304.203125 247.476562 C 302.738281 247.476562 301.4375 247.070312 300.296875 246.257812 C 299.15625 245.445312 298.585938 244.371094 298.585938 243.039062 C 298.585938 242.359375 298.75 241.804688 299.074219 241.382812 C 299.402344 240.960938 299.855469 240.75 300.441406 240.75 C 301.027344 240.75 301.566406 241.074219 302.054688 241.722656 C 302.542969 242.339844 302.785156 242.925781 302.785156 243.480469 C 302.785156 244 302.65625 244.519531 302.394531 245.039062 C 302.785156 245.625 303.4375 245.917969 304.347656 245.917969 C 305.292969 245.917969 306.042969 245.527344 306.59375 244.746094 C 307.148438 243.964844 307.492188 243.1875 307.621094 242.40625 C 307.75 241.628906 307.816406 240.832031 307.816406 240.019531 C 307.816406 238.167969 307.410156 236.492188 306.59375 235 C 305.78125 233.472656 304.773438 232.414062 303.566406 231.828125 C 302.917969 232.480469 302.136719 232.804688 301.222656 232.804688 C 300.3125 232.773438 299.628906 232.578125 299.171875 232.21875 C 298.75 231.828125 298.539062 231.390625 298.539062 230.902344 C 298.539062 230.417969 298.734375 230.027344 299.125 229.734375 C 299.546875 229.410156 300.117188 229.246094 300.832031 229.246094 C 301.550781 229.246094 302.214844 229.394531 302.835938 229.683594 C 303.257812 229.132812 303.46875 228.5 303.46875 227.785156 C 303.46875 227.039062 303.210938 226.417969 302.6875 225.933594 C 302.167969 225.414062 301.515625 225.152344 300.734375 225.152344 C 299.402344 225.152344 298.035156 225.867188 296.632812 227.296875 C 295.265625 228.726562 294.582031 230.074219 294.582031 231.34375 L 294.582031 244.40625 L 295.851562 244.40625 C 296.242188 244.40625 296.535156 244.550781 296.730469 244.84375 C 296.925781 245.105469 297.023438 245.394531 297.023438 245.722656 C 297.023438 246.535156 296.632812 246.941406 295.851562 246.941406 L 290.726562 246.941406 C 290.335938 246.941406 290.027344 246.824219 289.796875 246.597656 C 289.570312 246.339844 289.457031 246.046875 289.457031 245.722656 C 289.457031 245.394531 289.570312 245.105469 289.796875 244.84375 C 290.058594 244.550781 290.367188 244.40625 290.726562 244.40625 Z M 291.847656 244.40625 "/><path style=" stroke:none;fill-rule:nonzero;fill:rgb(100%,100%,100%);fill-opacity:1;" d="M 338.03125 226.074219 L 336.957031 226.074219 C 336.207031 226.074219 335.835938 225.652344 335.835938 224.808594 C 335.835938 223.960938 336.207031 223.539062 336.957031 223.539062 L 341.644531 223.539062 C 341.972656 223.539062 342.230469 223.667969 342.425781 223.929688 C 342.65625 224.15625 342.769531 224.449219 342.769531 224.808594 C 342.769531 225.164062 342.65625 225.472656 342.425781 225.734375 C 342.230469 225.960938 341.972656 226.074219 341.644531 226.074219 L 340.667969 226.074219 L 340.667969 244.597656 C 342.265625 244.597656 343.875 243.71875 345.503906 241.964844 C 347.128906 240.175781 348.433594 238.015625 349.410156 235.480469 C 350.386719 232.914062 350.875 230.511719 350.875 228.269531 C 350.875 227.03125 350.710938 226.382812 350.386719 226.316406 C 349.996094 226.414062 349.6875 226.464844 349.457031 226.464844 C 348.808594 226.464844 348.222656 226.171875 347.699219 225.585938 C 347.210938 225.003906 346.96875 224.417969 346.96875 223.832031 C 346.96875 222.46875 347.636719 221.785156 348.96875 221.785156 C 350.109375 221.785156 351.085938 222.320312 351.898438 223.394531 C 352.746094 224.464844 353.167969 226.238281 353.167969 228.707031 C 353.167969 231.175781 352.566406 233.890625 351.363281 236.847656 C 350.15625 239.769531 348.480469 242.273438 346.332031 244.351562 C 344.183594 246.398438 341.9375 247.421875 339.59375 247.421875 C 338.550781 247.421875 338.03125 246.953125 338.03125 246.007812 L 338.03125 240.355469 C 337.21875 242.304688 335.816406 243.980469 333.832031 245.375 C 331.878906 246.742188 330.074219 247.421875 328.414062 247.421875 C 327.339844 247.421875 326.800781 246.984375 326.800781 246.105469 L 326.800781 226.074219 L 325.386719 226.074219 C 324.636719 226.074219 324.261719 225.652344 324.261719 224.808594 C 324.261719 223.960938 324.636719 223.539062 325.386719 223.539062 L 330.367188 223.539062 C 330.691406 223.539062 330.984375 223.671875 331.246094 223.929688 C 331.503906 224.191406 331.636719 224.480469 331.636719 224.808594 C 331.636719 225.132812 331.503906 225.425781 331.246094 225.683594 C 330.984375 225.945312 330.691406 226.074219 330.367188 226.074219 L 329.488281 226.074219 L 329.488281 244.597656 C 331.246094 244.597656 333.101562 243.378906 335.054688 240.941406 C 337.039062 238.472656 338.03125 235.902344 338.03125 233.238281 Z M 338.03125 226.074219 "/><path style=" stroke:none;fill-rule:nonzero;fill:rgb(100%,100%,100%);fill-opacity:1;" d="M 369.582031 230.738281 C 369.449219 229.4375 368.863281 228.1875 367.824219 226.984375 C 366.78125 225.785156 365.480469 225.183594 363.917969 225.183594 C 362.386719 225.183594 361.117188 225.75 360.109375 226.886719 C 359.097656 228.027344 358.398438 229.308594 358.007812 230.738281 Z M 364.453125 247.410156 C 361.492188 247.410156 359.117188 246.253906 357.324219 243.949219 C 355.535156 241.640625 354.640625 238.699219 354.640625 235.125 C 354.640625 231.550781 355.484375 228.644531 357.179688 226.402344 C 358.902344 224.160156 361.167969 223.039062 363.964844 223.039062 C 365.398438 223.039062 366.683594 223.363281 367.824219 224.011719 C 368.960938 224.628906 369.839844 225.410156 370.460938 226.351562 C 371.761719 228.269531 372.414062 230.089844 372.414062 231.8125 C 372.414062 232.722656 371.988281 233.175781 371.144531 233.175781 L 357.472656 233.175781 C 357.40625 233.597656 357.375 234.199219 357.375 234.980469 C 357.375 237.96875 358.042969 240.421875 359.375 242.339844 C 360.742188 244.257812 362.4375 245.214844 364.453125 245.214844 C 365.332031 245.214844 366.128906 244.988281 366.847656 244.53125 C 367.5625 244.046875 368.066406 243.589844 368.359375 243.167969 C 368.652344 242.714844 368.980469 242.113281 369.335938 241.363281 C 369.726562 240.617188 370.25 240.242188 370.898438 240.242188 C 371.875 240.242188 372.363281 240.683594 372.363281 241.558594 C 372.363281 242.695312 371.632812 243.964844 370.167969 245.359375 C 368.734375 246.726562 366.832031 247.410156 364.453125 247.410156 Z M 364.453125 247.410156 "/><path style=" stroke:none;fill-rule:nonzero;fill:rgb(100%,100%,100%);fill-opacity:1;" d="M 378.6875 225.722656 L 378.6875 244.390625 L 379.613281 244.390625 C 380.003906 244.390625 380.296875 244.523438 380.492188 244.78125 C 380.722656 245.007812 380.835938 245.300781 380.835938 245.660156 C 380.835938 246.503906 380.429688 246.925781 379.613281 246.925781 L 374.976562 246.925781 C 374.128906 246.925781 373.707031 246.503906 373.707031 245.660156 C 373.707031 244.8125 374.128906 244.390625 374.976562 244.390625 L 375.953125 244.390625 L 375.953125 226.066406 L 374.976562 226.066406 C 374.550781 226.066406 374.226562 225.933594 374 225.675781 C 373.769531 225.414062 373.65625 225.121094 373.65625 224.796875 C 373.65625 224.441406 373.769531 224.148438 374 223.921875 C 374.226562 223.660156 374.550781 223.53125 374.976562 223.53125 L 384.007812 223.53125 C 385.667969 223.53125 386.921875 223.886719 387.769531 224.601562 C 388.613281 225.285156 389.039062 226.160156 389.039062 227.234375 C 389.039062 227.785156 388.90625 228.289062 388.648438 228.746094 C 388.386719 229.167969 387.964844 229.378906 387.378906 229.378906 C 386.792969 229.378906 386.253906 229.117188 385.765625 228.597656 C 385.3125 228.046875 385.066406 227.476562 385.035156 226.894531 C 385.035156 226.277344 385.066406 225.886719 385.132812 225.722656 Z M 378.6875 225.722656 "/><path style=" stroke:none;fill-rule:nonzero;fill:rgb(100%,100%,100%);fill-opacity:1;" d="M 408.613281 244.40625 L 410.90625 244.40625 C 411.199219 244.40625 411.445312 244.535156 411.640625 244.792969 C 411.835938 245.054688 411.933594 245.347656 411.933594 245.671875 C 411.933594 245.996094 411.835938 246.289062 411.640625 246.550781 C 411.445312 246.808594 411.199219 246.941406 410.90625 246.941406 L 406.804688 246.941406 C 406.1875 246.941406 405.878906 246.613281 405.878906 245.964844 L 405.878906 243.1875 C 405.160156 244.324219 404.203125 245.265625 402.996094 246.011719 C 401.792969 246.726562 400.492188 247.085938 399.089844 247.085938 C 396.386719 247.085938 394.238281 246.011719 392.644531 243.867188 C 391.082031 241.691406 390.300781 238.882812 390.300781 235.4375 C 390.300781 231.960938 391.097656 229.082031 392.695312 226.808594 C 394.289062 224.503906 396.4375 223.347656 399.140625 223.347656 C 400.605469 223.347656 401.9375 223.691406 403.144531 224.371094 C 404.347656 225.054688 405.257812 225.964844 405.878906 227.101562 L 405.878906 218.375 L 403.582031 218.375 C 402.800781 218.375 402.410156 217.953125 402.410156 217.109375 C 402.410156 216.265625 402.800781 215.84375 403.582031 215.84375 L 407.34375 215.84375 C 407.796875 215.84375 408.125 215.941406 408.320312 216.132812 C 408.515625 216.296875 408.613281 216.621094 408.613281 217.109375 Z M 392.988281 235.4375 C 392.988281 237.9375 393.523438 240.132812 394.597656 242.015625 C 395.671875 243.902344 397.269531 244.84375 399.382812 244.84375 C 401.5 244.84375 403.144531 244.015625 404.316406 242.359375 C 405.488281 240.699219 406.074219 238.425781 406.074219 235.535156 C 406.074219 232.640625 405.503906 230.253906 404.363281 228.367188 C 403.257812 226.484375 401.644531 225.542969 399.53125 225.542969 C 397.96875 225.542969 396.683594 226.109375 395.671875 227.246094 C 393.882812 229.164062 392.988281 231.894531 392.988281 235.4375 Z M 392.988281 235.4375 "/><path style=" stroke:none;fill-rule:nonzero;fill:rgb(100%,100%,100%);fill-opacity:1;" d="M 428.597656 230.738281 C 428.46875 229.4375 427.882812 228.1875 426.839844 226.984375 C 425.800781 225.785156 424.496094 225.183594 422.933594 225.183594 C 421.40625 225.183594 420.136719 225.75 419.125 226.886719 C 418.117188 228.027344 417.417969 229.308594 417.027344 230.738281 Z M 423.472656 247.410156 C 420.511719 247.410156 418.132812 246.253906 416.34375 243.949219 C 414.554688 241.640625 413.65625 238.699219 413.65625 235.125 C 413.65625 231.550781 414.503906 228.644531 416.195312 226.402344 C 417.921875 224.160156 420.183594 223.039062 422.984375 223.039062 C 424.417969 223.039062 425.703125 223.363281 426.839844 224.011719 C 427.980469 224.628906 428.859375 225.410156 429.476562 226.351562 C 430.78125 228.269531 431.429688 230.089844 431.429688 231.8125 C 431.429688 232.722656 431.007812 233.175781 430.160156 233.175781 L 416.488281 233.175781 C 416.425781 233.597656 416.390625 234.199219 416.390625 234.980469 C 416.390625 237.96875 417.058594 240.421875 418.394531 242.339844 C 419.761719 244.257812 421.453125 245.214844 423.472656 245.214844 C 424.351562 245.214844 425.148438 244.988281 425.863281 244.53125 C 426.582031 244.046875 427.085938 243.589844 427.378906 243.167969 C 427.671875 242.714844 427.996094 242.113281 428.355469 241.363281 C 428.746094 240.617188 429.265625 240.242188 429.917969 240.242188 C 430.894531 240.242188 431.382812 240.683594 431.382812 241.558594 C 431.382812 242.695312 430.648438 243.964844 429.183594 245.359375 C 427.753906 246.726562 425.847656 247.410156 423.472656 247.410156 Z M 423.472656 247.410156 "/><path style=" stroke:none;fill-rule:nonzero;fill:rgb(100%,100%,100%);fill-opacity:1;" d="M 438.558594 244.40625 L 439.976562 244.40625 C 440.335938 244.40625 440.628906 244.535156 440.855469 244.792969 C 441.082031 245.054688 441.195312 245.347656 441.195312 245.671875 C 441.195312 245.996094 441.082031 246.289062 440.855469 246.550781 C 440.628906 246.808594 440.335938 246.941406 439.976562 246.941406 L 434.261719 246.941406 C 433.90625 246.941406 433.613281 246.824219 433.382812 246.597656 C 433.1875 246.339844 433.089844 246.046875 433.089844 245.722656 C 433.089844 245.363281 433.1875 245.054688 433.382812 244.792969 C 433.613281 244.535156 433.90625 244.40625 434.261719 244.40625 L 435.824219 244.40625 L 435.824219 226.078125 L 433.824219 226.078125 C 433.464844 226.078125 433.1875 225.964844 432.992188 225.738281 C 432.796875 225.476562 432.699219 225.152344 432.699219 224.761719 C 432.699219 224.371094 432.816406 224.078125 433.042969 223.882812 C 433.304688 223.65625 433.5625 223.542969 433.824219 223.542969 L 437.582031 223.542969 C 437.941406 223.542969 438.1875 223.609375 438.316406 223.738281 C 438.445312 223.867188 438.511719 224.113281 438.511719 224.46875 L 438.511719 228.125 C 439.390625 226.664062 440.511719 225.476562 441.878906 224.566406 C 443.246094 223.65625 444.679688 223.203125 446.175781 223.203125 C 448.652344 223.203125 450.410156 223.949219 451.449219 225.445312 C 452.492188 226.90625 453.011719 228.726562 453.011719 230.902344 L 453.011719 244.402344 L 454.378906 244.402344 C 454.738281 244.402344 455.03125 244.535156 455.257812 244.792969 C 455.488281 245.054688 455.601562 245.347656 455.601562 245.671875 C 455.601562 245.996094 455.488281 246.289062 455.257812 246.550781 C 455.03125 246.808594 454.738281 246.9375 454.378906 246.9375 L 449.105469 246.9375 C 448.324219 246.9375 447.933594 246.515625 447.933594 245.671875 C 447.933594 244.828125 448.324219 244.402344 449.105469 244.402344 L 450.277344 244.402344 L 450.277344 230.660156 C 450.277344 227.214844 448.894531 225.492188 446.128906 225.492188 C 444.273438 225.492188 442.546875 226.355469 440.953125 228.074219 C 439.359375 229.796875 438.558594 231.941406 438.558594 234.511719 Z M 438.558594 244.40625 "/></g></svg>