<?xml version="1.0" encoding="UTF-8" standalone="no"?>
<!-- Created with Inkscape (http://www.inkscape.org/) -->
<svg xmlns:inkscape="http://www.inkscape.org/namespaces/inkscape" xmlns:sodipodi="http://sodipodi.sourceforge.net/DTD/sodipodi-0.dtd" xmlns="http://www.w3.org/2000/svg" xmlns:svg="http://www.w3.org/2000/svg" width="93.395897mm" height="94.245285mm" viewBox="0 0 93.395895 94.245285" version="1.1" id="svg11662" inkscape:version="1.1 (ce6663b3b7, 2021-05-25)" sodipodi:docname="sonne21.svg"><defs id="defs11659"/><g inkscape:label="Layer 1" inkscape:groupmode="layer" id="layer1" transform="translate(-42.527951,-72.094334)"><g id="g1785"><path id="path3263-6-8-0-2-8-74" style="fill:#ffc700;fill-opacity:1;stroke-width:0.916461" d="m 128.32548,108.11354 c -2.46819,1.04295 -4.93974,2.31597 -6.83649,2.33848 -1.89677,0.0225 -3.66396,-2.67574 -4.09014,-3.68432 -0.42618,-1.00858 -0.45184,-1.96178 0.88637,-3.30621 1.33818,-1.34441 4.74958,-3.10347 7.21778,-4.146422 2.46818,-1.04294 4.16609,-1.55496 6.06286,-1.57748 1.89675,-0.0225 2.77476,1.1882 3.20093,2.19677 0.42619,1.008592 1.95817,2.686862 0.61998,4.031292 -1.33818,1.34443 -4.59309,3.10494 -7.06129,4.14789 z" sodipodi:nodetypes="sssssssss"/><path id="path3263-3-2-7-1-9-4-31" style="fill:#ffc700;fill-opacity:1;stroke-width:0.916461" d="m 122.65967,141.8715 c -2.35429,-1.27944 -5.68722,-2.73914 -6.88745,-4.20803 -1.2002,-1.46893 -0.1469,-2.69824 0.37593,-3.6603 0.52281,-0.96204 2.00316,-3.08997 3.88863,-2.88198 1.88546,0.20802 5.38771,1.7784 7.74201,3.05786 2.35431,1.27944 3.81323,2.28767 5.01344,3.75658 1.20022,1.46893 0.29386,3.14594 -0.22896,4.10799 -0.52283,0.96203 -2.00237,2.21518 -3.88783,2.00717 -1.88547,-0.208 -3.66147,-0.89985 -6.01577,-2.17929 z" sodipodi:nodetypes="sssssssss"/><path id="path3263-3-6-9-9-5-1-8-46" style="fill:#ffc700;fill-opacity:1;stroke-width:0.916461" d="m 92.698331,158.44693 c -0.46757,-2.63837 -1.40437,-6.15428 -1.00427,-8.0085 0.40013,-1.85422 2.94446,-1.84879 4.02258,-2.03986 1.07813,-0.19107 2.61651,-0.0566 3.62945,1.54716 1.012929,1.6038 1.862919,5.01651 2.330489,7.6549 0.46758,2.63837 1.47972,4.35032 1.07958,6.20455 -0.40011,1.85424 -2.939499,2.30093 -4.017629,2.492 -1.07813,0.19106 -2.56684,-0.23562 -3.5798,-1.83942 -1.01294,-1.60379 -1.99286,-3.37244 -2.46048,-6.01081 z" sodipodi:nodetypes="sssssssss"/><path id="path3263-3-6-5-1-2-0-2-1-94" style="fill:#ffc700;fill-opacity:1;stroke-width:0.916461" d="m 61.228851,145.53137 c 1.77124,-2.01056 3.93598,-4.93511 5.63515,-5.77838 1.69916,-0.8432 3.28126,1.14937 4.10285,1.87315 0.82159,0.7238 1.67563,2.01035 1.05331,3.80226 -0.62234,1.79189 -2.76055,4.58423 -4.5318,6.59479 -1.77125,2.01057 -2.79181,3.35166 -4.49095,4.19493 -1.69914,0.84334 -3.31854,-0.34597 -4.14011,-1.06974 -0.82158,-0.7238 -1.4162,-2.15376 -0.79386,-3.94566 0.62233,-1.7919 1.39416,-3.66076 3.16541,-5.67135 z" sodipodi:nodetypes="sssssssss"/><path id="path3263-3-6-5-3-2-0-80-7-0-2" style="fill:#ffc700;fill-opacity:1;stroke-width:0.916461" d="m 51.466951,113.08208 c 2.67629,0.13125 6.5297,-0.18743 8.24839,0.61527 1.71869,0.80268 1.02407,2.9667 0.97044,4.0603 -0.0536,1.09362 -0.52701,2.56351 -2.31601,3.19418 -1.78901,0.63061 -5.30528,0.69992 -7.98156,0.56868 -2.67627,-0.13125 -4.64176,-0.24115 -6.36046,-1.04388 -1.71871,-0.8027 -1.5179,-2.66201 -1.46426,-3.75564 0.0536,-1.09364 0.37646,-2.84435 2.16545,-3.47502 1.78901,-0.63061 4.06174,-0.29514 6.73802,-0.1639 z" sodipodi:nodetypes="sssssssss"/><path id="path3263-3-6-5-3-5-7-2-7-0-3-26" style="fill:#ffc700;fill-opacity:1;stroke-width:0.916461" d="m 71.198731,84.929118 c 1.56603,2.17422 3.28901,4.28023 3.73303,6.12441 0.44403,1.8442 -1.09406,3.47362 -1.98252,4.11354 -0.88846,0.63992 -2.3328,1.18628 -3.9413,0.18081 -1.60849,-1.00548 -3.85502,-3.71142 -5.42103,-5.88566 -1.56603,-2.17423 -2.70556,-3.77943 -3.14954,-5.62366 -0.44403,-1.84423 1.13485,-2.84651 2.02331,-3.48642 0.88846,-0.63993 2.45852,-1.47908 4.067,-0.47362 1.6085,1.00548 3.10504,2.87637 4.67105,5.0506 z" sodipodi:nodetypes="sssssssss"/><path id="path3263-3-6-7-0-3-1-9-0-41" style="fill:#ffc700;fill-opacity:1;stroke-width:0.916461" d="m 105.44197,82.102668 c -0.72349,2.57998 -1.40494,6.15416 -2.56995,7.65115 -1.16501,1.49701 -2.77556,1.29454 -3.829829,0.99883 -1.05425,-0.29561 -3.0614,-1.99054 -3.27817,-3.875 -0.21677,-1.88448 0.49815,-5.32802 1.22163,-7.90798 0.72349,-2.57999 1.17818,-4.34241 2.34322,-5.83935 1.165019,-1.49701 3.022889,-1.01686 4.077139,-0.72124 1.05427,0.29565 2.77764,0.85758 2.99443,2.74201 0.21675,1.88448 -0.23498,4.37161 -0.95847,6.95158 z" sodipodi:nodetypes="sssssssss"/></g><g id="g1776"><path sodipodi:nodetypes="zccscz" style="fill:#ffc700;fill-opacity:1;stroke-width:0.250407" id="path8-6-2-9-6" d="m 84.385411,140.44639 c -9.70748,-3.07766 -15.9898,-11.11573 -16.46472,-20.48664 -0.49149,-9.34704 6.03715,-19.58808 14.58436,-22.351972 8.53067,-2.74002 19.739529,1.03849 25.312419,8.327362 5.57295,7.28888 5.50992,18.08816 0.37597,25.54907 -5.10847,7.47853 -14.100569,12.03984 -23.808029,8.96218 z" inkscape:connector-curvature="0"/><path sodipodi:nodetypes="cccccc" inkscape:connector-curvature="0" d="m 85.577161,134.73515 c -6.91978,-2.13391 -11.62513,-9.94751 -12.02629,-16.70402 -0.40116,-6.7565 3.49438,-12.48724 10.31058,-14.43132 6.829,-1.96194 15.44193,0.56864 19.845569,5.92087 4.4164,5.33437 4.62359,13.49039 0.73213,19.00409 -3.91171,5.50008 -11.929429,8.32647 -18.861989,6.21038 z" id="path6598" style="fill:#ffffff;fill-opacity:1;stroke-width:0.238161"/><path style="fill:#f7f166;fill-opacity:1;stroke-width:0.210532" id="path6-0-1-6-8" d="m 86.132051,132.93167 c -6.11704,-1.88637 -10.27653,-8.79356 -10.63115,-14.76626 -0.35462,-5.9727 3.08901,-11.03863 9.1145,-12.7572 6.03679,-1.73432 13.65055,0.50268 17.543329,5.23401 3.90409,4.71556 4.08723,11.92543 0.6472,16.79948 -3.457889,4.86207 -10.545519,7.36055 -16.673879,5.48997 z" inkscape:connector-curvature="0" sodipodi:nodetypes="cccccc"/><path style="fill:#ffc700;fill-opacity:1;stroke-width:0.229005" id="path4-2-3-5-8" d="m 80.574901,121.9407 c -1.29612,-3.69409 1.18025,-6.92079 4.53173,-9.25132 3.35121,-2.34455 7.57753,-3.79291 10.86241,-1.54535 3.28465,2.23348 4.557209,7.10705 3.20485,10.99743 -1.33721,3.89067 -5.3294,5.93196 -9.31701,5.83269 -3.98762,-0.0993 -7.98584,-2.33937 -9.28198,-6.03345 z" inkscape:connector-curvature="0" sodipodi:nodetypes="sccccs"/><path style="fill:#ffffff;fill-opacity:1;stroke-width:0.141559" id="path18788-6-2-0-0" d="m 89.098691,123.66036 c -1.71485,-0.4912 -3.27695,-2.40948 -3.41464,-4.31401 -0.1289,-1.90569 1.2599,-3.0902 3.04287,-3.60524 1.78837,-0.51133 2.94892,-0.0602 4.01064,1.37324 1.06172,1.4334 1.93325,3.15034 0.9357,4.62394 -1.00632,1.47479 -2.85975,2.41324 -4.57457,1.92207 z" inkscape:connector-curvature="0" sodipodi:nodetypes="cccccc"/></g></g></svg>